<?xml version="1.0" encoding="utf-8"?>
<!-- Generator: Adobe Illustrator 26.3.0, SVG Export Plug-In . SVG Version: 6.00 Build 0)  -->
<svg version="1.1" id="Layer_2_00000169525907317367430060000012524967158876756147_"
	 xmlns="http://www.w3.org/2000/svg" xmlns:xlink="http://www.w3.org/1999/xlink" x="0px" y="0px" viewBox="0 0 346.8 225"
	 style="enable-background:new 0 0 346.8 225;" xml:space="preserve">
<style type="text/css">
	.st0{fill:#8B573C;}
</style>
<g id="Layer_1-2">
	<g>
		<g>
			<path class="st0" d="M173.4,225c-26.9-0.2-51.8-8-75.2-20.8c-38-20.7-68.7-49.8-95.1-83.8c-4-5.2-4.1-10.7-0.1-15.8
				c28.4-36.3,61.4-67.3,103.1-87.9c22.4-11.1,46.1-17.5,71.4-16.6c25.8,0.8,49.7,8.8,72.1,21.2c31.6,17.3,58,40.9,81.6,67.9
				c4.4,5.1,8.6,10.4,12.7,15.7c3.8,4.9,3.9,10.4,0.1,15.2c-28.2,36.3-61.1,67.1-102.6,87.9C220,218.6,197.4,224.8,173.4,225
				L173.4,225z M319.9,112c-9.3-9.7-18-19.5-27.4-28.6c-20.5-20-43.1-37.1-69.7-48.5c-21.4-9.2-43.5-13.3-66.8-9.5
				c-20,3.3-38.2,11.1-55.4,21.6c-27.1,16.6-50,38-70.6,62.1c-1,1.1-1.8,2.3-3,3.7c6.7,7.3,13,14.6,19.7,21.4
				c22.3,22.7,46.8,42.4,76.1,55.4c30.6,13.6,61.6,15.2,93.1,3.2c17-6.5,32.6-15.5,47.2-26.3C284.2,150.9,302.6,132.8,319.9,112
				L319.9,112z"/>
			<path class="st0" d="M173.3,169c-32,0-58-24.6-60.4-57.2c-2.3-30.6,20.7-58.7,51.9-63.2c2.6-0.4,5.2-0.6,7.8-0.6
				c7.1-0.1,12.5,4.8,12.7,11.4c0.3,6.8-4.9,12.3-12.1,12.5c-11.4,0.3-20.8,4.7-28.1,13.5c-11.8,14.3-10.9,35.1,2,48.5
				c12.8,13.2,33.3,14.9,48.1,3.9c14.8-11.1,19-31.5,9.7-47.6c-2-3.4-3.8-6.8-2.9-10.9c0.9-4.6,4.6-8.5,9.1-9.4
				c5.1-1.1,10,0.9,12.9,5.5c11.2,18,13.2,36.9,5.1,56.6C219.8,154.5,197.6,169.1,173.3,169L173.3,169z"/>
		</g>
	</g>
</g>
</svg>
