<?xml version="1.0" encoding="utf-8"?>
<!-- Generator: Adobe Illustrator 26.3.0, SVG Export Plug-In . SVG Version: 6.00 Build 0)  -->
<svg version="1.1" id="Layer_2_00000035509210831183637740000002390665286008458403_"
	 xmlns="http://www.w3.org/2000/svg" xmlns:xlink="http://www.w3.org/1999/xlink" x="0px" y="0px" viewBox="0 0 344 166.6"
	 style="enable-background:new 0 0 344 166.6;" xml:space="preserve">
<style type="text/css">
	.st0{fill:#8B573C;}
</style>
<g id="Layer_1-2">
	<path class="st0" d="M224.5,166.6c-6.7,0-12.4-4-14.1-9.9c-2.1-7.3-4.2-14.8-6.2-22.1c-1-3.6-1.9-7.1-2.9-10.7
		c-0.2-0.8-0.4-1.5-0.7-2.3c-0.1-0.4-0.3-0.8-0.4-1.2c-0.4-1.2-1.6-2.1-2.9-2.1c-0.1,0-0.1,0-0.2,0c-1.4,0.1-2.8,0.2-4.2,0.4
		c-2.9,0.3-5.6,0.5-8.4,0.5h-0.3c-12-0.1-23-0.3-33.5-0.7c-0.3,0-0.6,0-0.9,0c-2.7,0-5.9,0.6-7.1,5.4c-2.9,11.5-6.2,23-9,32.7
		c-1.7,6-7,9.8-13.7,9.9h-0.4c-6.6,0-12.1-3.5-13.7-8.7c-0.7-2.4-0.8-5.3-0.1-7.8c1.9-7.7,4.1-15.5,6.2-23.1
		c0.9-3.1,1.7-6.2,2.6-9.3c0.2-0.7,0.3-1.4,0.4-1.7l0-0.1c0.2-1.4-0.5-2.8-1.8-3.3L71.9,95.7c-0.4-0.2-0.8-0.2-1.1-0.2
		c-0.9,0-1.8,0.4-2.4,1.2l-4.8,6.4c-1.9,2.6-3.8,5.2-5.8,7.8c-4.3,5.9-8.8,12-13.3,17.9c-3.1,4.1-7.7,6.5-12.7,6.5
		c-2.8,0-5.6-0.8-8.1-2.3c-3.3-2-5.5-4.9-6.2-8.1c-0.7-3.3,0.2-6.7,2.6-9.9c5.9-8,11.8-16,18-24.4c2.7-3.7,5.5-7.4,8.4-11.3
		c0.5-0.7,0.7-1.5,0.5-2.3c-0.1-0.8-0.6-1.5-1.2-2c-0.7-0.5-1.4-0.9-2.1-1.4c-1.5-0.9-2.8-1.8-3.9-2.8c-16.1-14.7-29-32.2-38.2-51.7
		c-1.9-4-2.1-7.8-0.8-11.1c1.3-3.2,4-5.6,7.8-7C10.6,0.4,12.5,0,14.5,0c6,0,11.3,3.6,14.2,9.7c19.3,41.1,51.8,67.6,96.6,78.6
		c17.3,4.2,34.2,6.4,50.2,6.4c39.1,0,74.4-12.8,104.8-37.9c15-12.4,26.9-28.3,35.6-47.3c2.6-5.6,7.5-8.9,13.6-8.9
		c1.3,0,2.7,0.2,4.1,0.5c4.2,1,7.7,3.5,9.4,7c1.5,3.1,1.6,6.7,0.1,10c-9.4,20.6-23.1,39.1-40.8,54.9c-0.5,0.5-1.3,0.9-2.1,1.3
		c-0.5,0.3-1,0.5-1.5,0.8c-0.7,0.4-1.2,1.2-1.4,2c-0.2,0.8,0,1.7,0.5,2.4l7.6,10.3c6.3,8.5,12.4,16.7,18.5,24.9
		c2.7,3.6,3.6,6.8,2.8,10c-1.4,5.6-5,9-11.1,10.2c-1.3,0.3-2.6,0.4-3.8,0.4c-4.8,0-8.7-2-11.8-6.1c-5.1-6.7-10.2-13.6-15.1-20.2
		c-2.3-3.1-4.6-6.3-7-9.4c-0.6-0.8-1.3-1.7-1.8-2.3l-0.5-0.6c-0.6-0.7-1.5-1.2-2.4-1.2c-0.4,0-0.8,0.1-1.1,0.2l-41.2,16.9
		c-1.4,0.6-2.2,2.1-1.8,3.6l1.7,6.2c1.7,6.2,3.5,12.6,5.3,19.1c0.3,1.1,0.6,2.3,1,3.4c0.5,1.9,1.1,3.9,1.6,5.8
		c0.8,3.3,0.4,6.5-1.3,9.3c-1.9,3.1-5.1,5.3-9,6.2C227.1,166.5,225.8,166.6,224.5,166.6L224.5,166.6z"/>
</g>
</svg>
