<?xml version="1.0" encoding="utf-8"?>
<!-- Generator: Adobe Illustrator 26.3.0, SVG Export Plug-In . SVG Version: 6.00 Build 0)  -->
<svg version="1.1" id="Layer_2_00000126323338096124951700000002188870241289304748_"
	 xmlns="http://www.w3.org/2000/svg" xmlns:xlink="http://www.w3.org/1999/xlink" x="0px" y="0px" viewBox="0 0 248.2 219.3"
	 style="enable-background:new 0 0 248.2 219.3;" xml:space="preserve">
<style type="text/css">
	.st0{fill:#FFFFFF;}
</style>
<g id="Layer_1-2">
	<g>
		<path class="st0" d="M53,213.1c11.2-3.4,23-2.9,34.6-5c-36.3-9.6-62.3-31.5-78.8-64.6c-4.8-9.6-7.8-19.9-8.9-31.3
			c11.8,6.4,24.3,7.9,36.7,9.7c11.3,1.7,22.8,2.9,34.2,3.4c20.9,0.9,41.9,1.8,62.9,1.2c20.3-0.6,40.5-2.7,60.7-4.9
			c10.2-1.1,20.3-3.8,30.4-6.1c3.4-0.8,6.6-2.8,10.4-4.4c-3.4,24-14,44-30.2,61.4C188.9,190,169,201.1,146,207.2l0.4,1.3
			c11.6,1.2,23.1,2.4,34.6,3.6c0.1,0.5,0.1,1.1,0.1,1.6c-1.1,0.5-2.1,1.2-3.3,1.4c-8,1-16.1,2.2-24.1,2.7c-11.3,0.8-22.7,1.5-34,1.4
			c-14.2-0.1-28.4-0.9-42.6-1.8c-6.9-0.4-13.8-1.6-20.8-2.4c-1.2-0.1-2.3-0.6-3.4-0.9L53,213.1L53,213.1z M68.7,197.3l0.8-1.3
			c-0.9-0.6-1.8-1.2-2.7-1.8c-7.2-4.5-14.2-9-20.1-15.2c-14-14.8-24.4-31.7-30.8-51.1c-0.5-1.4-2.4-3.5-3.4-3.3
			c-2.6,0.4-2,2.7-1.6,4.8c1.7,9.2,6.1,17.4,10.7,25.3c7.4,12.9,17.5,23.6,29.8,31.9C57,190.5,62.9,193.8,68.7,197.3L68.7,197.3z
			 M117.8,175.2c0.4,0,0.9,0,1.4,0c0.1-0.9,0.3-1.8,0.4-2.8c0.5-6.1,0.3-11.9,8.3-14.5c5.1-1.6,8-6.9,7.4-13.1
			c-0.5-5-3.5-8.7-7.9-9.9c-4.4-1.2-9.3-1.6-13.8-1c-6.1,0.8-10.5,4.9-11.9,11c-1.4,5.9,1.4,10.7,6.2,14.2c0.8,0.6,1.6,1,2.4,1.4
			l0.7-0.8c-0.8-1.1-1.6-2.1-2.3-3.2c-4-6.2-3.5-11.2,1.4-15.3c3.9-3.3,13.6-3.7,17.7-0.6c2.9,2.1,3.6,5.2,2.1,8.6
			c-1.7,3.9-5.4,5.3-8.8,7c-1.1,0.6-2.9,1.6-2.9,2.4C117.6,164.2,117.8,169.8,117.8,175.2L117.8,175.2z"/>
		<path class="st0" d="M137.9,107.7c7.1-4.8,13.5-9.2,20-13.5c3.9-2.5,8-4.7,11.9-7c8.4-4.9,13.5-13.1,19.5-20.4
			c12.1-14.6,24.1-29.2,36.1-43.8c0.6-0.7,1.6-1.5,2.4-1.6c6.6-0.5,13.3-0.9,19.9-1.2l0.5,1.2c-1.1,1.4-2.1,2.9-3.4,4.1
			c-11.3,10.5-22.5,21.2-34.1,31.4c-16.3,14.3-27.6,31.3-31.6,52.8c-1,5.4-1.9,5.9-7.4,6.4c-4.8,0.5-9.6,1.3-14.4,1.9
			c-1.2,0.1-2.7,0.3-3.6-0.2C148.8,114.8,143.9,111.5,137.9,107.7L137.9,107.7z"/>
		<path class="st0" d="M90.7,92.6c-4.3,7.2-8.4,11.8-17,12.6c-17.7,1.6-35.2,4.7-52.8,7.6c-5.1,0.8-9.3-0.6-13.6-2.6
			c-1-0.4-2.4-1.8-2.2-2.6c0.2-1.1,1.4-2.5,2.4-2.9c4.7-1.7,9.3-3.8,14.2-4.6c12.6-2.1,25.3-3.8,38-5.4c8.9-1.1,17.9-1.5,26.8-2.2
			C87.5,92.6,88.6,92.6,90.7,92.6z"/>
		<path class="st0" d="M184,107.6c0.6-2.2,1-4.2,1.5-6.1c1.5-5.8,1.6-6.1,7.4-5.1c10,1.7,20,3.5,29.9,5.8c2.6,0.6,4.8,3.1,7.1,4.7
			c-2.4,1.7-4.6,3.9-7.3,5.1c-4,1.8-8.1,1.9-12.7,0.7c-7.3-1.9-14.9-2.8-22.3-4.2C186.5,108.3,185.3,108,184,107.6L184,107.6z"/>
		<path class="st0" d="M98.7,97.5c2.5-10.2-0.7-18.6-7.1-26.3c-6.7-8.1-7.9-17.4-3.5-27c4-8.8,5.6-17.3-0.3-26.8
			c7.3,5.1,10,11.9,8.8,20.8c-0.4,3.1-0.8,6.2-1.4,9.2c-1.7,8.1,0.3,15.1,5,21.8C106,77.8,105.4,89.1,98.7,97.5L98.7,97.5z"/>
		<path class="st0" d="M118.1,68.8c2.4-3.1,4.7-5.5,6.4-8.4c4.3-7.2,4.7-14.8,1.7-22.6c-0.9-2.3-1.7-4.7-2.6-7
			c-3.4-9.4-1.9-18.4,2.8-27c0.8-1.5,2.1-2.7,3.6-3.9c-3.7,8.9-1.6,17.2,1.9,25.3c1.1,2.5,2.2,5,3.2,7.6c3.3,9.1,3.2,17.8-2.6,26
			C129.5,63.2,122.9,67.9,118.1,68.8L118.1,68.8z"/>
		<path class="st0" d="M106.9,4.5c-2.9,9.6,2.5,17,6.4,24.7c4.7,9.2,1.3,20.9-8.2,25.6c5.6-8.8,2.9-16.7-1.4-24.5
			C98,20.1,99.1,11.4,106.9,4.5L106.9,4.5z"/>
		<path class="st0" d="M145.4,49.3c5.9,7.9,4.4,19.3-3,27.4c-3.2,3.5-6.1,7.6-8.1,11.9c-1.3,2.7-0.9,6.2-1.2,9.4
			c-6.4-6.9-5.8-18.4,0.8-26c3.8-4.3,7.2-9.2,10.1-14.2C145.3,55.5,145,52.3,145.4,49.3L145.4,49.3z"/>
		<path class="st0" d="M147.4,121.6h-29.7c1.9-4.8,5.5-7.6,10.2-8.9C134.2,110.9,142,114.4,147.4,121.6L147.4,121.6z"/>
		<path class="st0" d="M69.7,116.8H50.8c0.3-4.1,4.2-8.2,8.1-8.4C64,108,68.4,111.2,69.7,116.8L69.7,116.8z"/>
		<path class="st0" d="M109.7,102.8c-0.5-4.2,1.1-7.1,3.8-9.5c4.1-3.8,6.8-8.2,6.6-14.2C127,86.6,122.5,96.9,109.7,102.8z"/>
		<path class="st0" d="M139.6,101v-8.1h10.5l0.4,0.9c-3.2,2.5-6.5,5-9.7,7.5L139.6,101L139.6,101z"/>
		<path class="st0" d="M93.3,114.2H81.7c0.2-3.1,2.4-4,4.9-4.4C89.7,109.3,91.6,110.9,93.3,114.2z"/>
		<path class="st0" d="M108.7,109.8c1.8-0.8,3.6-2.2,5.4-2.2c1.5,0,2.9,1.7,4.4,2.6c-0.2,0.4-0.4,0.7-0.6,1.1h-8.6
			C109.1,110.8,108.9,110.3,108.7,109.8L108.7,109.8z"/>
		<path class="st0" d="M100.6,120.8c2.6-3.6,3.5-3.7,6.3-0.4C104.7,120.6,103,120.7,100.6,120.8z"/>
	</g>
</g>
</svg>
